# xmcd
#
# Track frame offsets: 
#        150
#        17173
#        32162
#        48853
#        65931
#        84440
#        95708
#        112083
#        128742
#        147464
#        163128
#        180521
#        198509
#
# Disc length: 2860 seconds
#
# Revision: 2
# Processed by: cddbd v1.5.2PL0 Copyright (c) Steve Scherf et al.
# Submitted via: ExactAudioCopyFreeDBPlugin 1.0
#
DISCID=bd0b2a0d
DTITLE=Troy Cassar-Daley - Home
DYEAR=2012
DGENRE=Country
TTITLE0=Country Is
TTITLE1=Live And Learn
TTITLE2=Good Things In Life
TTITLE3=Play
TTITLE4=Home
TTITLE5=A Simple Song
TTITLE6=The River Runs
TTITLE7=Tall Dark Ringer
TTITLE8=Good Man
TTITLE9=Beautiful Life
TTITLE10=This Country's In My Soul
TTITLE11=Thinkin' About Drinkin'
TTITLE12=Good Times Starting Over
EXTD=
EXTT0=
EXTT1=
EXTT2=
EXTT3=
EXTT4=
EXTT5=
EXTT6=
EXTT7=
EXTT8=
EXTT9=
EXTT10=
EXTT11=
EXTT12=
PLAYORDER=
